<svg xmlns="http://www.w3.org/2000/svg" xmlns:xlink="http://www.w3.org/1999/xlink" width="30" height="31" viewBox="0 0 30 31">
    <defs>
        <path id="xb05kkdtva" d="M0 0L21.61 0 21.61 11.985 0 11.985z"/>
    </defs>
    <g fill="none" fill-rule="evenodd">
        <g>
            <g>
                <g>
                    <g>
                        <g>
                            <g transform="translate(-1193 -74) translate(0 50) translate(1089 25) translate(104) translate(4.286 2.381) translate(0 13.205)">
                                <mask id="kj00dk6dfb" fill="#fff">
                                    <use xlink:href="#xb05kkdtva"/>
                                </mask>
                                <path fill="#A7A7A7" d="M19.956 11.985H1.653C.74 11.985 0 11.245 0 10.332V4.96C0 2.22 2.22 0 4.96 0h11.69c2.739 0 4.96 2.221 4.96 4.96v5.373c0 .914-.74 1.653-1.654 1.653" mask="url(#kj00dk6dfb)"/>
                            </g>
                            <path fill="#DADADA" d="M10.805 13.226c-3.652 0-6.613-2.961-6.613-6.613C4.192 2.96 7.152 0 10.805 0c3.652 0 6.613 2.96 6.613 6.613 0 3.652-2.961 6.613-6.613 6.613" transform="translate(-1193 -74) translate(0 50) translate(1089 25) translate(104) translate(4.286 2.381)"/>
                            <path fill="#FFF" d="M10.805 10.953c-1.805 0-3.218-.999-3.218-2.274 0-.342.278-.62.62-.62.342 0 .62.278.62.62 0 .488.846 1.034 1.978 1.034 1.132 0 1.978-.546 1.978-1.034 0-.342.278-.62.62-.62.342 0 .62.278.62.62 0 1.275-1.414 2.274-3.218 2.274" transform="translate(-1193 -74) translate(0 50) translate(1089 25) translate(104) translate(4.286 2.381)"/>
                        </g>
                    </g>
                </g>
            </g>
        </g>
    </g>
</svg>
